<?xml version="1.0" encoding="UTF-8" standalone="no"?>
<svg xmlns:dc="http://purl.org/dc/elements/1.1/" xmlns:cc="http://creativecommons.org/ns#" xmlns:rdf="http://www.w3.org/1999/02/22-rdf-syntax-ns#" xmlns:svg="http://www.w3.org/2000/svg" xmlns="http://www.w3.org/2000/svg" version="1.1" id="svg5804" viewBox="0 0 120 120" height="120" width="120">
  <defs id="defs5806">
    <mask id="mask6405" maskUnits="userSpaceOnUse">
      <path id="path6407" d="m 16.264922,848.13853 0,49.4251 49.550913,0 0,-21.66661 -27.817873,0 0,-5.72474 27.817873,0 0,-22.03375 -49.550913,0 z" style="opacity:0.98999999;fill:#ffffff;fill-opacity:1;fill-rule:nonzero;stroke:none;stroke-width:1.5;stroke-linecap:round;stroke-linejoin:round;stroke-miterlimit:4;stroke-dasharray:none;stroke-dashoffset:0;stroke-opacity:1" />
    </mask>
  </defs>
  <metadata id="metadata5809">
    <rdf:RDF>
      <cc:Work rdf:about="">
        <dc:format>image/svg+xml</dc:format>
        <dc:type rdf:resource="http://purl.org/dc/dcmitype/StillImage" />
        <dc:title></dc:title>
      </cc:Work>
    </rdf:RDF>
  </metadata>
  <g transform="translate(0,-932.36216)" id="layer1">
    <g id="g6567">
      <path style="color:#000000;font-style:normal;font-variant:normal;font-weight:normal;font-stretch:normal;font-size:medium;line-height:normal;font-family:sans-serif;text-indent:0;text-align:start;text-decoration:none;text-decoration-line:none;text-decoration-style:solid;text-decoration-color:#000000;letter-spacing:normal;word-spacing:normal;text-transform:none;direction:ltr;block-progression:tb;writing-mode:lr-tb;baseline-shift:baseline;text-anchor:start;white-space:normal;clip-rule:nonzero;display:inline;overflow:visible;visibility:visible;opacity:1;isolation:auto;mix-blend-mode:normal;color-interpolation:sRGB;color-interpolation-filters:linearRGB;solid-color:#000000;solid-opacity:1;fill:#e3dac4;fill-opacity:1;fill-rule:nonzero;stroke:none;stroke-width:1.80332589;stroke-linecap:round;stroke-linejoin:round;stroke-miterlimit:4;stroke-dasharray:none;stroke-dashoffset:0;stroke-opacity:1;color-rendering:auto;image-rendering:auto;shape-rendering:auto;text-rendering:auto;enable-background:accumulate" d="M 58.730469 43.099609 C 49.293622 43.099609 41.623047 50.769341 41.623047 60.207031 C 41.623047 69.644671 49.293622 77.314453 58.730469 77.314453 C 65.35825 77.314453 71.099115 73.522397 73.9375 68 L 71.888672 68 C 69.226637 72.495755 64.341985 75.511719 58.730469 75.511719 C 50.268314 75.511719 43.427734 68.670271 43.427734 60.207031 C 43.427734 51.743831 50.268314 44.902344 58.730469 44.902344 C 64.630022 44.902344 69.732361 48.23149 72.287109 53.113281 L 74.279297 53.113281 C 71.57915 47.212721 65.635417 43.099609 58.730469 43.099609 z " transform="translate(0,932.36216)" id="ellipse5774" />
      <path style="color:#000000;font-style:normal;font-variant:normal;font-weight:normal;font-stretch:normal;font-size:medium;line-height:normal;font-family:sans-serif;text-indent:0;text-align:start;text-decoration:none;text-decoration-line:none;text-decoration-style:solid;text-decoration-color:#000000;letter-spacing:normal;word-spacing:normal;text-transform:none;direction:ltr;block-progression:tb;writing-mode:lr-tb;baseline-shift:baseline;text-anchor:start;white-space:normal;clip-rule:nonzero;display:inline;overflow:visible;visibility:visible;opacity:1;isolation:auto;mix-blend-mode:normal;color-interpolation:sRGB;color-interpolation-filters:linearRGB;solid-color:#000000;solid-opacity:1;fill:#e3dac4;fill-opacity:1;fill-rule:nonzero;stroke:none;stroke-width:1.80332589;stroke-linecap:round;stroke-linejoin:round;stroke-miterlimit:4;stroke-dasharray:none;stroke-dashoffset:0;stroke-opacity:1;color-rendering:auto;image-rendering:auto;shape-rendering:auto;text-rendering:auto;enable-background:accumulate" d="M 58.730469 29.041016 C 41.530772 29.041016 27.568359 43.005671 27.568359 60.207031 C 27.568359 77.408371 41.530772 91.373047 58.730469 91.373047 C 73.237808 91.373047 85.427659 81.432479 88.892578 68 L 87.029297 68 C 83.61772 80.436544 72.255158 89.568359 58.730469 89.568359 C 42.505464 89.568359 29.371094 76.433871 29.371094 60.207031 C 29.371094 43.980161 42.505464 30.845703 58.730469 30.845703 C 72.508836 30.845703 84.051221 40.31924 87.220703 53.113281 L 89.070312 53.113281 C 85.855317 39.326468 73.489469 29.041016 58.730469 29.041016 z " transform="translate(0,932.36216)" id="ellipse5776" />
      <path style="color:#000000;font-style:normal;font-variant:normal;font-weight:normal;font-stretch:normal;font-size:medium;line-height:normal;font-family:sans-serif;text-indent:0;text-align:start;text-decoration:none;text-decoration-line:none;text-decoration-style:solid;text-decoration-color:#000000;letter-spacing:normal;word-spacing:normal;text-transform:none;direction:ltr;block-progression:tb;writing-mode:lr-tb;baseline-shift:baseline;text-anchor:start;white-space:normal;clip-rule:nonzero;display:inline;overflow:visible;visibility:visible;opacity:1;isolation:auto;mix-blend-mode:normal;color-interpolation:sRGB;color-interpolation-filters:linearRGB;solid-color:#000000;solid-opacity:1;fill:#e3dac4;fill-opacity:1;fill-rule:nonzero;stroke:none;stroke-width:1.80332589;stroke-linecap:round;stroke-linejoin:round;stroke-miterlimit:4;stroke-dasharray:none;stroke-dashoffset:0;stroke-opacity:1;color-rendering:auto;image-rendering:auto;shape-rendering:auto;text-rendering:auto;enable-background:accumulate" d="M 58.730469 15.679688 C 34.152028 15.679688 14.207031 35.626151 14.207031 60.207031 C 14.207031 84.787871 34.152028 104.73437 58.730469 104.73438 C 80.648844 104.73438 98.867066 88.866074 102.55664 68 L 100.72266 68 C 97.060568 87.878041 79.6704 102.92969 58.730469 102.92969 C 35.126721 102.92969 16.009766 83.813471 16.009766 60.207031 C 16.009766 36.600641 35.126721 17.482422 58.730469 17.482422 C 79.916806 17.482422 97.476835 32.887483 100.85352 53.113281 L 102.68164 53.113281 C 99.281528 31.901452 80.89443 15.679687 58.730469 15.679688 z " transform="translate(0,932.36216)" id="ellipse5778" />
      <g id="orbit__lines">
        <path id="ellipse5780" transform="translate(0,932.36216)" d="M 58.730469 2.3183594 C 26.773276 2.3183594 0.84765625 28.246621 0.84765625 60.207031 C 0.84765625 92.167471 26.773276 118.0957 58.730469 118.0957 C 88.041687 118.0957 112.2483 96.273019 116.06055 68 L 114.24219 68 C 110.44831 95.289903 87.065412 116.29297 58.730469 116.29297 C 27.747969 116.29297 2.6503906 91.192971 2.6503906 60.207031 C 2.6503906 29.221111 27.747969 4.1210937 58.730469 4.1210938 C 87.308658 4.1210938 110.86166 25.481295 114.34766 53.113281 L 116.16406 53.113281 C 112.66268 24.498737 88.284922 2.3183594 58.730469 2.3183594 z " style="color:#000000;font-style:normal;font-variant:normal;font-weight:normal;font-stretch:normal;font-size:medium;line-height:normal;font-family:sans-serif;text-indent:0;text-align:start;text-decoration:none;text-decoration-line:none;text-decoration-style:solid;text-decoration-color:#000000;letter-spacing:normal;word-spacing:normal;text-transform:none;direction:ltr;block-progression:tb;writing-mode:lr-tb;baseline-shift:baseline;text-anchor:start;white-space:normal;clip-rule:nonzero;display:inline;overflow:visible;visibility:visible;opacity:0.98999999;isolation:auto;mix-blend-mode:normal;color-interpolation:sRGB;color-interpolation-filters:linearRGB;solid-color:#000000;solid-opacity:1;fill:#e3dac4;fill-opacity:1;fill-rule:nonzero;stroke:none;stroke-width:1.80332589;stroke-linecap:round;stroke-linejoin:round;stroke-miterlimit:4;stroke-dasharray:none;stroke-dashoffset:0;stroke-opacity:1;color-rendering:auto;image-rendering:auto;shape-rendering:auto;text-rendering:auto;enable-background:accumulate" />
      </g>
    </g>
    <g id="orbit__text" style="font-style:normal;font-variant:normal;font-weight:600;font-stretch:normal;font-size:12.35680389px;line-height:125%;font-family:Montserrat;-inkscape-font-specification:'Montserrat, Semi-Bold';text-align:start;writing-mode:lr-tb;text-anchor:start;opacity:1;fill:#414141;fill-opacity:1;fill-rule:nonzero;stroke:none;stroke-width:0.60000002;stroke-linecap:round;stroke-linejoin:round;stroke-miterlimit:4;stroke-dasharray:none;stroke-dashoffset:0;stroke-opacity:1" transform="scale(0.99994747,1.0000525)">
      <path id="path6509" style="letter-spacing:6.17840195px;fill:#414141;fill-opacity:1;stroke-width:0.60000002;stroke-miterlimit:4;stroke-dasharray:none" d="m 59.179021,997.0994 q -1.322178,0 -2.384863,-0.56841 -1.062685,-0.58077 -1.668169,-1.59403 -0.605483,-1.02562 -0.605483,-2.28601 0,-1.2604 0.605483,-2.27365 0.605484,-1.02562 1.668169,-1.59403 1.062685,-0.58077 2.384863,-0.58077 1.322178,0 2.384863,0.58077 1.062685,0.56841 1.668169,1.58167 0.605483,1.01326 0.605483,2.28601 0,1.27275 -0.605483,2.28601 -0.605484,1.01326 -1.668169,1.59403 -1.062685,0.56841 -2.384863,0.56841 z m 0,-1.40868 q 0.864976,0 1.556957,-0.38306 0.691981,-0.39542 1.087399,-1.0874 0.395418,-0.70434 0.395418,-1.56931 0,-0.86498 -0.395418,-1.55696 -0.395418,-0.70434 -1.087399,-1.0874 -0.691981,-0.39542 -1.556957,-0.39542 -0.864976,0 -1.556957,0.39542 -0.691981,0.38306 -1.087399,1.0874 -0.395418,0.69198 -0.395418,1.55696 0,0.86497 0.395418,1.56931 0.395418,0.69198 1.087399,1.0874 0.691981,0.38306 1.556957,0.38306 z" />
      <path id="path6511" style="letter-spacing:6.17840195px;fill:#414141;fill-opacity:1;stroke-width:0.60000002;stroke-miterlimit:4;stroke-dasharray:none" d="m 77.378085,996.97583 -1.767023,-2.53314 q -0.111212,0.0124 -0.333634,0.0124 l -1.952375,0 0,2.52079 -1.606385,0 0,-8.64976 3.55876,0 q 1.124469,0 1.952375,0.3707 0.840263,0.37071 1.285108,1.06269 0.444845,0.69198 0.444845,1.64345 0,0.97619 -0.481916,1.68053 -0.469558,0.70433 -1.359248,1.05033 l 1.989445,2.84206 -1.729952,0 z m -0.03707,-5.57292 q 0,-0.8279 -0.543699,-1.27275 -0.543699,-0.44484 -1.594028,-0.44484 l -1.878234,0 0,3.44754 1.878234,0 q 1.050329,0 1.594028,-0.44484 0.543699,-0.4572 0.543699,-1.28511 z" />
      <path id="path6513" style="letter-spacing:6.17840195px;fill:#414141;fill-opacity:1;stroke-width:0.60000002;stroke-miterlimit:4;stroke-dasharray:none" d="m 93.052304,992.47795 q 0.716694,0.23478 1.136826,0.79084 0.420131,0.5437 0.420131,1.35925 0,1.12447 -0.864976,1.74231 -0.864977,0.60548 -2.520788,0.60548 l -4.300168,0 0,-8.64976 4.053032,0 q 1.532243,0 2.360149,0.60548 0.827906,0.59313 0.827906,1.64346 0,0.64255 -0.296563,1.13682 -0.296564,0.49427 -0.815549,0.76612 z m -4.522591,-2.89149 0,2.38486 2.273652,0 q 0.840263,0 1.285108,-0.29656 0.457202,-0.30892 0.457202,-0.88969 0,-0.59313 -0.457202,-0.88969 -0.444845,-0.30892 -1.285108,-0.30892 l -2.273652,0 z m 2.594929,6.12898 q 1.865878,0 1.865878,-1.24804 0,-1.24804 -1.865878,-1.24804 l -2.594929,0 0,2.49608 2.594929,0 z" />
      <path id="path6515" style="letter-spacing:6.17840195px;fill:#414141;fill-opacity:1;stroke-width:0.60000002;stroke-miterlimit:4;stroke-dasharray:none" d="m 102.51414,988.32607 1.60638,0 0,8.64976 -1.60638,0 0,-8.64976 z" />
      <path id="path6517" style="letter-spacing:6.17840195px;fill:#414141;fill-opacity:1;stroke-width:0.60000002;stroke-miterlimit:4;stroke-dasharray:none" d="m 114.38111,989.68532 -2.86678,0 0,-1.35925 7.33994,0 0,1.35925 -2.86677,0 0,7.29051 -1.60639,0 0,-7.29051 z" />
    </g>
  </g>
</svg>
