<svg xmlns="http://www.w3.org/2000/svg" height="120" width="120"><path style="line-height:normal;text-indent:0;text-align:start;text-decoration-line:none;text-decoration-style:solid;text-decoration-color:#000;text-transform:none;block-progression:tb;isolation:auto;mix-blend-mode:normal" d="M58.73 43.1c-9.436 0-17.107 7.67-17.107 17.107 0 9.438 7.67 17.107 17.107 17.107 6.628 0 12.37-3.792 15.208-9.314h-2.05c-2.661 4.496-7.546 7.512-13.158 7.512-8.462 0-15.302-6.842-15.302-15.305 0-8.463 6.84-15.305 15.302-15.305 5.9 0 11.002 3.33 13.557 8.211h1.992c-2.7-5.9-8.644-10.013-15.549-10.013z" font-weight="400" white-space="normal" color="#000" overflow="visible" font-family="sans-serif" fill="#e3dac4"/><path style="line-height:normal;text-indent:0;text-align:start;text-decoration-line:none;text-decoration-style:solid;text-decoration-color:#000;text-transform:none;block-progression:tb;isolation:auto;mix-blend-mode:normal" d="M58.73 29.041c-17.2 0-31.162 13.965-31.162 31.166S41.531 91.373 58.73 91.373c14.508 0 26.698-9.94 30.163-23.373h-1.864C83.618 80.437 72.255 89.568 58.73 89.568c-16.225 0-29.359-13.134-29.359-29.361s13.134-29.361 29.36-29.361c13.778 0 25.32 9.473 28.49 22.267h1.85c-3.216-13.787-15.582-24.072-30.34-24.072z" font-weight="400" white-space="normal" color="#000" overflow="visible" font-family="sans-serif" fill="#e3dac4"/><path style="line-height:normal;text-indent:0;text-align:start;text-decoration-line:none;text-decoration-style:solid;text-decoration-color:#000;text-transform:none;block-progression:tb;isolation:auto;mix-blend-mode:normal" d="M58.73 15.68c-24.578 0-44.523 19.946-44.523 44.527 0 24.58 19.945 44.527 44.523 44.527 21.919 0 40.137-15.868 43.827-36.734h-1.834C97.06 87.878 79.67 102.93 58.73 102.93c-23.603 0-42.72-19.117-42.72-42.723 0-23.606 19.117-42.725 42.72-42.725 21.187 0 38.747 15.405 42.124 35.631h1.828C99.282 31.901 80.894 15.68 58.73 15.68z" font-weight="400" white-space="normal" color="#000" overflow="visible" font-family="sans-serif" fill="#e3dac4"/><path d="M58.73 2.318C26.773 2.318.848 28.247.848 60.207c0 31.96 25.925 57.889 57.882 57.889 29.312 0 53.518-21.823 57.33-50.096h-1.818c-3.794 27.29-27.177 48.293-55.512 48.293-30.982 0-56.08-25.1-56.08-56.086 0-30.986 25.098-56.086 56.08-56.086 28.579 0 52.132 21.36 55.618 48.992h1.816C112.663 24.5 88.284 2.318 58.73 2.318z" style="line-height:normal;text-indent:0;text-align:start;text-decoration-line:none;text-decoration-style:solid;text-decoration-color:#000;text-transform:none;block-progression:tb;isolation:auto;mix-blend-mode:normal" font-weight="400" white-space="normal" color="#000" overflow="visible" font-family="sans-serif" fill="#e3dac4" opacity=".99"/><g style="line-height:125%;-inkscape-font-specification:'Montserrat, Semi-Bold';text-align:start" stroke-linecap="round" font-weight="600" font-family="Montserrat" fill="#414141" stroke-linejoin="round" font-size="12.357" stroke-width=".6" letter-spacing="6.178"><path d="M59.176 64.79q-1.322 0-2.385-.569-1.062-.58-1.668-1.594-.605-1.026-.605-2.286t.605-2.274q.606-1.026 1.668-1.594 1.063-.58 2.385-.58 1.322 0 2.385.58 1.062.568 1.668 1.582.605 1.013.605 2.286 0 1.273-.605 2.286-.606 1.013-1.668 1.594-1.063.569-2.385.569zm0-1.41q.865 0 1.557-.382.692-.396 1.087-1.088.396-.704.396-1.57 0-.864-.396-1.556-.395-.705-1.087-1.088-.692-.395-1.557-.395t-1.557.395q-.692.383-1.087 1.088-.396.692-.396 1.557t.396 1.57q.395.691 1.087 1.087.692.383 1.557.383zM77.374 64.666l-1.767-2.533q-.111.012-.334.012h-1.952v2.521h-1.606v-8.65h3.558q1.125 0 1.953.37.84.371 1.285 1.063.445.692.445 1.644 0 .976-.482 1.68-.47.705-1.36 1.05l1.99 2.843h-1.73zm-.037-5.573q0-.828-.544-1.273-.543-.445-1.594-.445h-1.878v3.448H75.2q1.05 0 1.594-.445.544-.457.544-1.285zM93.047 60.168q.717.235 1.137.79.42.545.42 1.36 0 1.125-.865 1.742-.865.606-2.52.606h-4.3v-8.65h4.053q1.532 0 2.36.605.827.593.827 1.644 0 .642-.296 1.137-.297.494-.816.766zm-4.522-2.892v2.385H90.8q.84 0 1.285-.296.457-.31.457-.89 0-.593-.457-.89-.445-.309-1.285-.309h-2.274zm2.595 6.13q1.866 0 1.866-1.249 0-1.248-1.866-1.248h-2.595v2.497h2.595zM102.509 56.016h1.606v8.65h-1.606v-8.65zM114.375 57.375h-2.867v-1.36h7.34v1.36h-2.867v7.291h-1.606v-7.29z"/></g></svg>